arm26_states
version=1
nRows=31
nColumns=17
inDegrees=yes

# SIMM Motion File Header:
name arm26_states
datacolumns 17
datarows 31
otherdata 1
range 0.00000000 0.04289961
endheader
time	/jointset/r_shoulder/r_shoulder_elev/value	/jointset/r_shoulder/r_shoulder_elev/speed	/jointset/r_elbow/r_elbow_flex/value	/jointset/r_elbow/r_elbow_flex/speed	/forceset/TRIlong/activation	/forceset/TRIlong/fiber_length	/forceset/TRIlat/activation	/forceset/TRIlat/fiber_length	/forceset/TRImed/activation	/forceset/TRImed/fiber_length	/forceset/BIClong/activation	/forceset/BIClong/fiber_length	/forceset/BICshort/activation	/forceset/BICshort/fiber_length	/forceset/BRA/activation	/forceset/BRA/fiber_length
      0.00000000	      0.00000000	      0.00000000	      0.00000000	      0.00000000	      0.01000000	      0.13400000	      0.01000000	      0.11380000	      0.01000000	      0.11380000	      0.01000000	      0.11570000	      0.01000000	      0.13210000	      0.01000000	      0.08580000
      0.00000137	      0.00000000	     -0.16272335	      0.00000000	      0.51276400	      0.01000002	      0.13424437	      0.01000008	      0.11379960	      0.01000008	      0.11379960	      0.01000372	      0.11801858	      0.01000052	      0.13376963	      0.01000038	      0.08774463
      0.00000274	     -0.00000022	     -0.28335069	      0.00000070	      0.90119494	      0.01000004	      0.13444875	      0.01000015	      0.11379920	      0.01000016	      0.11379920	      0.01000743	      0.12017300	      0.01000104	      0.13524788	      0.01000077	      0.08917026
      0.00000410	     -0.00000061	     -0.37294494	      0.00000193	      1.19740031	      0.01000006	      0.13461970	      0.01000023	      0.11379880	      0.01000024	      0.11379880	      0.01001115	      0.12217746	      0.01000156	      0.13655725	      0.01000115	      0.09021602
      0.00000595	     -0.00000130	     -0.46275287	      0.00000414	      1.50390546	      0.01000009	      0.13481228	      0.01000033	      0.11379826	      0.01000035	      0.11379826	      0.01001615	      0.12469151	      0.01000226	      0.13811960	      0.01000167	      0.09124854
      0.00000779	     -0.00000215	     -0.52182711	      0.00000691	      1.71733642	      0.01000011	      0.13496533	      0.01000043	      0.11379772	      0.01000045	      0.11379772	      0.01002115	      0.12697467	      0.01000297	      0.13944192	      0.01000219	      0.09190854
      0.00001041	     -0.00000352	     -0.57742556	      0.00001141	      1.93289452	      0.01000015	      0.13514567	      0.01000057	      0.11379695	      0.01000061	      0.11379695	      0.01002826	      0.12992355	      0.01000396	      0.14103258	      0.01000292	      0.09250692
      0.00001361	     -0.00000537	     -0.61331978	      0.00001761	      2.09425490	      0.01000020	      0.13532133	      0.01000075	      0.11379601	      0.01000079	      0.11379601	      0.01003696	      0.13306123	      0.01000518	      0.14255184	      0.01000382	      0.09286054
      0.00001805	     -0.00000809	     -0.63646650	      0.00002690	      2.22673256	      0.01000026	      0.13551439	      0.01000099	      0.11379471	      0.01000105	      0.11379471	      0.01004901	      0.13670627	      0.01000687	      0.14408860	      0.01000507	      0.09305199
      0.00002532	     -0.00001272	     -0.65670895	      0.00004309	      2.36558242	      0.01000036	      0.13575629	      0.01000139	      0.11379258	      0.01000148	      0.11379258	      0.01006873	      0.14131409	      0.01000964	      0.14566022	      0.01000710	      0.09320626
      0.00003554	     -0.00001942	     -0.66976858	      0.00006725	      2.46848583	      0.01000051	      0.13599211	      0.01000195	      0.11378959	      0.01000207	      0.11378959	      0.01009643	      0.14526110	      0.01001353	      0.14650452	      0.01000996	      0.09331171
      0.00005131	     -0.00002999	     -0.68369904	      0.00010619	      2.54986131	      0.01000074	      0.13623470	      0.01000282	      0.11378496	      0.01000299	      0.11378496	      0.01013917	      0.14780594	      0.01001953	      0.14705083	      0.01001437	      0.09339281
      0.00007637	     -0.00004712	     -0.70243561	      0.00017008	      2.61630880	      0.01000109	      0.13646559	      0.01000420	      0.11377762	      0.01000445	      0.11377762	      0.01020699	      0.14834842	      0.01002905	      0.14746447	      0.01002134	      0.09344448
      0.00015081	     -0.00009941	     -0.74698055	      0.00036485	      2.77098707	      0.01000215	      0.13681123	      0.01000829	      0.11375581	      0.01000880	      0.11375581	      0.01040817	      0.14866944	      0.01005733	      0.14798414	      0.01004196	      0.09347633
      0.00034218	     -0.00024236	     -0.84358571	      0.00089512	      3.12077333	      0.01000481	      0.13682093	      0.01001884	      0.11369973	      0.01001997	      0.11369973	      0.01092277	      0.14864077	      0.01012985	      0.14798551	      0.01009422	      0.09348012
      0.00129901	     -0.00104953	     -1.31860176	      0.00388117	      4.86000451	      0.01001750	      0.13686088	      0.01007181	      0.11341933	      0.01007593	      0.11341933	      0.01346360	      0.14857007	      0.01049016	      0.14799157	      0.01034585	      0.09349419
      0.00283551	     -0.00307556	     -2.03593365	      0.01134859	      7.58497020	      0.01003305	      0.13689081	      0.01015863	      0.11296898	      0.01016662	      0.11296898	      0.01729765	      0.14854715	      0.01105126	      0.14799612	      0.01067555	      0.09349953
      0.00578587	     -0.00908230	     -3.37420390	      0.03372697	     12.76133572	      0.01005083	      0.13692163	      0.01032976	      0.11210403	      0.01034280	      0.11210400	      0.02405796	      0.14848522	      0.01208495	      0.14799456	      0.01112232	      0.09349896
      0.00819857	     -0.01722325	     -4.44403933	      0.06451626	     17.00387573	      0.01005205	      0.13693263	      0.01047458	      0.11139634	      0.01048913	      0.11139629	      0.02894954	      0.14844085	      0.01288237	      0.14797485	      0.01128298	      0.09348537
      0.01061127	     -0.02794538	     -5.54129226	      0.10554153	     21.37304428	      0.01005183	      0.13694117	      0.01062109	      0.11068836	      0.01063625	      0.11068828	      0.03362845	      0.14839870	      0.01366319	      0.14795446	      0.01137218	      0.09347868
      0.01464507	     -0.05029784	     -7.34775228	      0.19175608	     28.66578957	      0.01005128	      0.13695443	      0.01084959	      0.10950418	      0.01086291	      0.10950404	      0.04118694	      0.14833020	      0.01495920	      0.14791924	      0.01143645	      0.09345590
      0.01867887	     -0.07993719	     -9.16186093	      0.30738810	     36.08720793	      0.01005049	      0.13696884	      0.01106172	      0.10831921	      0.01107045	      0.10831903	      0.04850563	      0.14826419	      0.01624734	      0.14788170	      0.01143555	      0.09343353
      0.02174268	     -0.10800739	    -10.50064593	      0.41795243	     41.68298607	      0.01004975	      0.13698297	      0.01119468	      0.10741863	      0.01119914	      0.10741842	      0.05391549	      0.14821448	      0.01721251	      0.14785088	      0.01143182	      0.09340116
      0.02480649	     -0.14017937	    -11.86535558	      0.54566117	     47.40573369	      0.01004895	      0.13700031	      0.01130357	      0.10651770	      0.01130336	      0.10651748	      0.05921708	      0.14816490	      0.01816639	      0.14781833	      0.01142462	      0.09337745
      0.02743001	     -0.17130840	    -12.99431282	      0.67003119	     52.23464822	      0.01004822	      0.13701816	      0.01138844	      0.10574600	      0.01138408	      0.10574578	      0.06371611	      0.14812250	      0.01897921	      0.14778894	      0.01141560	      0.09333992
      0.03005353	     -0.20539928	    -14.15470546	      0.80706999	     57.19069121	      0.01004746	      0.13703872	      0.01146508	      0.10497410	      0.01145628	      0.10497390	      0.06804223	      0.14807986	      0.01979170	      0.14775811	      0.01140398	      0.09331364
      0.03266624	     -0.24238136	    -15.27419523	      0.95649244	     62.05718919	      0.01004669	      0.13706198	      0.01153695	      0.10420522	      0.01152356	      0.10420504	      0.07224666	      0.14803755	      0.02060076	      0.14772589	      0.01138990	      0.09327000
      0.03527895	     -0.28228834	    -16.42565153	      1.11862961	     67.05044818	      0.01004590	      0.13708812	      0.01160664	      0.10343618	      0.01158858	      0.10343602	      0.07639550	      0.14799525	      0.02140977	      0.14769205	      0.01137340	      0.09323766
      0.03788406	     -0.32507907	    -17.53946145	      1.29330383	     71.96293857	      0.01004511	      0.13711710	      0.01168741	      0.10266922	      0.01166465	      0.10266910	      0.08035170	      0.14795285	      0.02220870	      0.14765665	      0.01135584	      0.09318650
      0.04048918	     -0.37077141	    -18.69257190	      1.48077566	     77.02123830	      0.01004431	      0.13714909	      0.01177797	      0.10190208	      0.01175049	      0.10190201	      0.08415797	      0.14791044	      0.02300113	      0.14761958	      0.01133760	      0.09314963
      0.04289961	     -0.41582863	    -19.72305454	      1.66643033	     81.62434981	      0.01004357	      0.13718150	      0.01186626	      0.10119208	      0.01183440	      0.10119207	      0.08760262	      0.14787115	      0.02373129	      0.14758370	      0.01132013	      0.09309330
